<svg xmlns="http://www.w3.org/2000/svg" width="48" height="48" fill="currentColor" viewBox="0 0 640 512" class="mx-auto d-block">
  <path d="M631.9 259.3c-8.4-16.8-30.2-23.6-47.2-14.8-14.5 7.4-30.8 11.5-47.3 11.5-45.4 0-85.5-30.4-97.1-74.2-3.3-12.3-14.3-20.8-27-20.8-12.6 0-23.6 8.4-27 20.8l-9.1 33.8c-1.5 5.5-6.7 9.4-12.5 9.4s-11-3.9-12.5-9.4l-9.1-33.8c-3.3-12.3-14.3-20.8-27-20.8s-23.6 8.4-27 20.8c-11.6 43.9-51.7 74.2-97.1 74.2-16.5 0-32.8-4-47.3-11.5-17-8.7-38.8-2-47.2 14.8-9.3 18.5-3 40.9 14.6 51.7C75.1 328.6 96 336 117.5 336c34.1 0 66.5-13.1 91.1-36.8 12.9 8.2 28 12.8 43.7 12.8 29.5 0 55.4-15.7 69.7-39.1 14.3 23.4 40.2 39.1 69.7 39.1 15.7 0 30.8-4.6 43.7-12.8 24.6 23.6 57 36.8 91.1 36.8 21.5 0 42.4-7.4 59.9-20.1 17.8-10.8 24-33.2 14.8-51.7z"></path>
</svg>
